PathFileType	4	(X/Y/Z)	/Users/itak/Documents/Research/Walk-IL/dataset/trc/00258_00009.trc
DataRate	CameraRate	NumFrames	NumMarkers	Units	OrigDataRate	OrigDataStartFrame	OrigNumFrames
100.000000	100.000000	4	53	mm	100.000000	387	517
Frame#	Time	LPSI			L3			STRN			T10			C7			CLAV			RBAK			LBAK			LSHO			LUPA			LAEL			LAOL			LWTS			LWPS			LFRA			LIFD			LHPS			LHTS			RSHO			RUPA			RAEL			RAOL			RWTS			RWPS			RFRA			RIFD			RHTS			RHPS			RBHD			LFHD			RFHD			LBHD			LHIP			RHIP			RASI			LASI			LKNE			LTHI			LANK			LTIP			LTOE			LMT1			LMT5			LHEE			RKNE			RTHI			RANK			RTIP			RTOE			RMT1			RMT5			RHEE			RPSI			
		X1	Y1	Z1	X2	Y2	Z2	X3	Y3	Z3	X4	Y4	Z4	X5	Y5	Z5	X6	Y6	Z6	X7	Y7	Z7	X8	Y8	Z8	X9	Y9	Z9	X10	Y10	Z10	X11	Y11	Z11	X12	Y12	Z12	X13	Y13	Z13	X14	Y14	Z14	X15	Y15	Z15	X16	Y16	Z16	X17	Y17	Z17	X18	Y18	Z18	X19	Y19	Z19	X20	Y20	Z20	X21	Y21	Z21	X22	Y22	Z22	X23	Y23	Z23	X24	Y24	Z24	X25	Y25	Z25	X26	Y26	Z26	X27	Y27	Z27	X28	Y28	Z28	X29	Y29	Z29	X30	Y30	Z30	X31	Y31	Z31	X32	Y32	Z32	X33	Y33	Z33	X34	Y34	Z34	X35	Y35	Z35	X36	Y36	Z36	X37	Y37	Z37	X38	Y38	Z38	X39	Y39	Z39	X40	Y40	Z40	X41	Y41	Z41	X42	Y42	Z42	X43	Y43	Z43	X44	Y44	Z44	X45	Y45	Z45	X46	Y46	Z46	X47	Y47	Z47	X48	Y48	Z48	X49	Y49	Z49	X50	Y50	Z50	X51	Y51	Z51	X52	Y52	Z52	X53	Y53	Z53	

388	3.87	-195.6129760742188	1047.272338867188	-374.0408325195312	-155.8405456542969	1122.90576171875	-360.7388610839844	-120.3654632568359	1317.532836914062	-604.3956298828125	-152.1927795410156	1251.387451171875	-353.4974670410156	-153.4394683837891	1514.3759765625	-410.7693786621094	-124.3133010864258	1433.862670898438	-575.21484375	-91.06260681152344	1373.50439453125	-329.2296447753906	-265.0096740722656	1473.468872070312	-407.0902099609375	-304.5854187011719	1474.481689453125	-503.78173828125	-386.0264892578125	1356.06005859375	-496.4474182128906	-409.1765441894531	1149.822998046875	-543.38525390625	-380.2093505859375	1121.805297851562	-464.5418395996094	-305.1388854980469	947.5096435546875	-662.5626220703125	-388.3351135253906	923.2384643554688	-667.701904296875	-407.3385925292969	1049.56005859375	-590.1069946289062	-292.3822326660156	763.5263671875	-721.370361328125	-369.5222778320312	843.5328369140625	-706.14453125	-306.7288513183594	861.6099853515625	-727.8484497070312	23.97591018676758	1478.588745117188	-442.0996398925781	86.3603515625	1413.768798828125	-413.6124877929688	131.3255767822266	1134.514770507812	-391.82373046875	38.59587478637695	1126.984375	-372.6262817382812	105.3612899780273	924.8622436523438	-540.725830078125	164.4539337158203	908.717529296875	-482.9798583984375	148.0180511474609	1066.808471679688	-419.6725463867188	101.0265579223633	733.613525390625	-564.0046997070312	125.4969329833984	806.0510864257812	-584.5691528320312	171.2544097900391	803.9159545898438	-527.915283203125	-95.28770446777344	1668.662109375	-439.0899353027344	-175.0595397949219	1724.749755859375	-644.456787109375	-74.77157592773438	1725.388427734375	-635.81298828125	-224.2782287597656	1677.179077148438	-494.6478881835938	-320.559814453125	988.504638671875	-496.2345275878906	41.51100158691406	1001.876708984375	-436.1031494140625	nan	nan	nan	-256.8093872070312	1031.503173828125	-587.1882934570312	-257.92041015625	505.7898254394531	-546.1522216796875	-287.7457275390625	649.4796752929688	-541.5015258789062	-239.5698699951172	33.12245559692383	-457.6449890136719	-257.3247680664062	278.9008178710938	-497.8113098144531	-164.0945587158203	40.27379608154297	-667.6585083007812	-127.3569793701172	34.71774291992188	-594.3591918945312	-243.3312377929688	35.76354598999023	-586.208984375	-193.2011871337891	38.25993728637695	-391.6834716796875	13.82922744750977	514.6270141601562	-521.4361572265625	58.55245208740234	779.7785034179688	-506.6222839355469	-19.12812614440918	35.09103393554688	-427.8241271972656	-0.8864906430244446	393.3167419433594	-527.8944702148438	-31.78059577941895	40.93360900878906	-643.371337890625	-82.91270446777344	35.93224716186523	-593.7587890625	21.56875419616699	35.81148910522461	-532.460205078125	-85.79280090332031	33.27898788452148	-374.3284606933594	-77.15620422363281	1040.458740234375	-354.4842529296875	
389	3.88	-195.0525665283203	1047.291870117188	-375.8886413574219	-155.1114807128906	1122.861328125	-362.2566833496094	-119.39453125	1317.742431640625	-605.5425415039062	-151.2292938232422	1251.392578125	-354.771240234375	-152.3115081787109	1514.416015625	-411.7475280761719	-123.3174209594727	1434.0634765625	-576.2484130859375	-89.78836059570312	1373.52197265625	-330.3211059570312	-263.7682495117188	1473.44140625	-407.9011840820312	-303.7217712402344	1474.4453125	-504.5047607421875	-384.6440124511719	1355.736206054688	-496.2619018554688	-407.6912536621094	1149.150390625	-541.7174682617188	-377.8750305175781	1121.882446289062	-462.8396301269531	-305.6326599121094	944.6869506835938	-659.1532592773438	-389.0097351074219	920.7449340820312	-663.02978515625	-406.6153564453125	1048.26025390625	-587.0669555664062	-294.3057556152344	759.74755859375	-715.18359375	-370.9248046875	840.3775024414062	-700.4097290039062	-308.3025512695312	857.8021850585938	-723.013916015625	25.05044937133789	1478.75732421875	-443.1971740722656	87.50826263427734	1413.933715820312	-414.8310852050781	132.5535430908203	1134.630249023438	-393.5840454101562	39.89620590209961	1126.976806640625	-374.2217712402344	106.4566116333008	925.0460815429688	-542.5444946289062	165.6690521240234	908.9323120117188	-484.9098205566406	149.214111328125	1066.966186523438	-421.5142517089844	102.0895843505859	733.7181396484375	-565.7587890625	126.5322952270508	806.2306518554688	-586.3710327148438	172.4203338623047	804.10009765625	-529.8449096679688	-94.26194000244141	1668.771484375	-439.9605712890625	-174.1414489746094	1724.972900390625	-645.2467651367188	-73.852294921875	1725.680419921875	-636.6319580078125	-223.3020477294922	1677.26025390625	-495.4686889648438	-319.5708312988281	988.5989379882812	-498.5235595703125	42.76101303100586	1002.227844238281	-437.2002563476562	nan	nan	nan	-255.5980224609375	1031.868774414062	-589.1909790039062	-257.32421875	505.7767639160156	-546.439697265625	-286.9159545898438	649.476806640625	-542.4948120117188	-239.5019073486328	33.23620223999023	-457.6565551757812	-256.9692687988281	279.0564575195312	-497.7676391601562	-164.0889892578125	40.30633163452148	-667.6373291015625	-127.3122177124023	34.65666961669922	-594.337890625	-243.2273254394531	35.83121490478516	-586.212158203125	-193.1325836181641	38.32145309448242	-391.6894226074219	14.00493431091309	514.6317138671875	-521.11767578125	59.03182601928711	779.8372192382812	-507.669921875	-19.14638710021973	35.02743911743164	-427.7840270996094	-0.8052941560745239	393.3678283691406	-527.4946899414062	-31.83212089538574	40.92232131958008	-643.3746948242188	-83.00620269775391	35.95666122436523	-593.7279052734375	21.53511047363281	35.82895660400391	-532.462890625	-85.76837921142578	33.26581192016602	-374.2810974121094	-76.56570434570312	1040.546142578125	-356.0079040527344	
390	3.89	-194.5775146484375	1047.329223632812	-377.7602844238281	-154.4358062744141	1122.868774414062	-363.795166015625	-118.4547500610352	1317.98828125	-606.6716918945312	-150.3946990966797	1251.42822265625	-356.0823059082031	-151.2113037109375	1514.481567382812	-412.7095642089844	-122.3496856689453	1434.307006835938	-577.271728515625	-88.54996490478516	1373.562866210938	-331.4116821289062	-262.5682373046875	1473.466918945312	-408.7245788574219	-302.8719482421875	1474.49755859375	-505.2376708984375	-383.3269653320312	1355.513427734375	-496.0981140136719	-406.1873168945312	1148.556396484375	-539.8854370117188	-375.4476928710938	1122.083251953125	-461.0126647949219	-306.235595703125	941.9371337890625	-655.5668334960938	-389.7312927246094	918.3208618164062	-658.069580078125	-405.9317321777344	1047.0458984375	-583.8147583007812	-296.3512878417969	756.0382080078125	-708.6349487304688	-372.4190673828125	837.290283203125	-694.313720703125	-309.9931640625	854.0226440429688	-717.89453125	26.09006881713867	1478.965209960938	-444.2739562988281	88.63351440429688	1414.152587890625	-416.0194702148438	133.7584838867188	1134.803955078125	-395.2734069824219	41.1329345703125	1127.0341796875	-375.8013000488281	107.6031036376953	925.3038940429688	-544.3466186523438	166.9072723388672	909.225341796875	-486.7977600097656	150.4136047363281	1067.1884765625	-423.2840270996094	103.2353134155273	733.8890380859375	-567.5056762695312	127.6672897338867	806.5021362304688	-588.1593017578125	173.6416931152344	804.3596801757812	-531.7387084960938	-93.23047637939453	1668.890258789062	-440.7821044921875	-173.1525573730469	1725.25048828125	-645.9865112304688	-72.89292907714844	1725.995483398438	-637.3925170898438	-222.3259124755859	1677.379150390625	-496.2633056640625	-318.6007995605469	988.6702270507812	-500.7880249023438	43.94624328613281	1002.660400390625	-438.294189453125	nan	nan	nan	-254.4643859863281	1032.223266601562	-591.178466796875	-256.736328125	505.7606201171875	-546.6478881835938	-286.1587829589844	649.4530029296875	-543.4212646484375	-239.4309844970703	33.34468078613281	-457.6666259765625	-256.6233215332031	279.206298828125	-497.6718444824219	-164.0883026123047	40.34125137329102	-667.6198120117188	-127.2454147338867	34.64585876464844	-594.3323974609375	-243.1275482177734	35.89630126953125	-586.2166748046875	-193.0660095214844	38.38718795776367	-391.6998291015625	14.39426136016846	514.648193359375	-520.7479858398438	59.57655334472656	780.0092163085938	-508.7013854980469	-19.09849739074707	34.8838996887207	-427.7409973144531	-0.5431109070777893	393.4820251464844	-527.0283203125	-31.80792617797852	40.94926834106445	-643.3632202148438	-82.99713134765625	36.06947708129883	-593.6826782226562	21.6153392791748	35.80219650268555	-532.4507446289062	-85.64928436279297	33.26938247680664	-374.2435607910156	-76.00513458251953	1040.7080078125	-357.5022277832031	
391	3.9	-194.1518707275391	1047.36279296875	-379.642333984375	-153.7890625	1122.899169921875	-365.3469848632812	-117.5388565063477	1318.249877929688	-607.7840576171875	-149.6698760986328	1251.467895507812	-357.4289855957031	-150.1418914794922	1514.554565429688	-413.6559448242188	-121.4185562133789	1434.569213867188	-578.2880859375	-87.35466766357422	1373.604614257812	-332.5025329589844	-261.4190368652344	1473.524047851562	-409.5660400390625	-302.0376892089844	1474.609985351562	-505.9870910644531	-382.102294921875	1355.3681640625	-495.98046875	-404.6817626953125	1148.021118164062	-537.899658203125	-372.9560852050781	1122.385620117188	-459.0736999511719	-306.936767578125	939.2730712890625	-651.8287963867188	-390.4945678710938	915.9625854492188	-652.8448486328125	-405.3024291992188	1045.905395507812	-580.3757934570312	-298.4808044433594	752.4110107421875	-701.7491455078125	-373.9967956542969	834.2762451171875	-687.883056640625	-311.7821044921875	850.2843017578125	-712.5104370117188	27.09253120422363	1479.182373046875	-445.3345642089844	89.73291778564453	1414.396484375	-417.1824035644531	134.9481353759766	1135.01025390625	-396.87939453125	42.29957962036133	1127.126586914062	-377.3568115234375	108.7940444946289	925.6171264648438	-546.129638671875	168.1604614257812	909.5632934570312	-488.6405334472656	151.6185455322266	1067.44384765625	-424.9711608886719	104.4604339599609	734.1107177734375	-569.2774047851562	128.8938751220703	806.8499755859375	-589.9539794921875	174.9096984863281	804.6751098632812	-533.6085815429688	-92.19698333740234	1668.9931640625	-441.5536193847656	-172.0972900390625	1725.56689453125	-646.6764526367188	-71.89088439941406	1726.314331054688	-638.0930786132812	-221.3544769287109	1677.514892578125	-497.0339660644531	-317.6952209472656	988.71142578125	-502.9819030761719	45.05318832397461	1003.117248535156	-439.3960266113281	nan	nan	nan	-253.4100952148438	1032.52880859375	-593.1224975585938	-256.1481323242188	505.7296142578125	-546.778564453125	-285.4875793457031	649.4014282226562	-544.273681640625	-239.3618927001953	33.44406509399414	-457.6740112304688	-256.3089294433594	279.357666015625	-497.5312805175781	-164.0926513671875	40.37855529785156	-667.6033935546875	-127.1593399047852	34.6864128112793	-594.342529296875	-243.0354919433594	35.95497131347656	-586.2223510742188	-193.0035095214844	38.45307159423828	-391.71142578125	14.95211410522461	514.6402587890625	-520.3031616210938	60.18996810913086	780.23291015625	-509.6886901855469	-19.00766181945801	34.69233322143555	-427.6941528320312	-0.144203245639801	393.6234436035156	-526.4930419921875	-31.73210334777832	40.97813034057617	-643.34814453125	-82.91061401367188	36.2270393371582	-593.6353759765625	21.77653694152832	35.73832321166992	-532.4226684570312	-85.47296905517578	33.27894973754883	-374.2134704589844	-75.44425201416016	1040.903076171875	-358.9616394042969	
